<?xml version="1.0" standalone="no"?>
<!DOCTYPE svg PUBLIC "-//W3C//DTD SVG 20010904//EN"
 "http://www.w3.org/TR/2001/REC-SVG-20010904/DTD/svg10.dtd">
<svg version="1.0" xmlns="http://www.w3.org/2000/svg"
 width="192.000000pt" height="192.000000pt" viewBox="0 0 192.000000 192.000000"
 preserveAspectRatio="xMidYMid meet">

<g transform="translate(0.000000,192.000000) scale(0.100000,-0.100000)"
fill="#000000" stroke="none">
<path d="M880 1840 c-24 -8 -24 -8 5 -9 17 0 37 4 45 9 12 8 11 10 -5 9 -11
-1 -31 -5 -45 -9z"/>
<path d="M1130 1820 c136 -33 268 -95 360 -168 71 -57 170 -161 170 -179 0 -9
3 -13 7 -10 6 7 14 -5 74 -125 45 -87 83 -220 75 -260 -3 -17 -1 -28 6 -28 18
0 2 117 -27 200 -30 83 -84 190 -95 190 -4 0 -11 11 -14 25 -11 43 -182 205
-271 256 -114 65 -273 121 -338 118 -12 0 12 -9 53 -19z"/>
<path d="M760 1820 c0 -5 4 -10 9 -10 6 0 13 5 16 10 3 6 -1 10 -9 10 -9 0
-16 -4 -16 -10z"/>
<path d="M718 1803 c7 -3 16 -2 19 1 4 3 -2 6 -13 5 -11 0 -14 -3 -6 -6z"/>
<path d="M832 1775 c0 -16 6 -64 13 -105 l14 -75 -4 60 c-6 77 -22 164 -23
120z"/>
<path d="M520 1734 c-35 -20 -89 -56 -120 -79 -52 -41 -140 -128 -140 -139 0
-3 -10 -17 -22 -31 -42 -49 -128 -227 -128 -265 0 -8 20 28 43 80 24 52 53
110 64 128 33 53 123 155 176 198 27 21 55 45 64 53 15 14 52 36 123 72 19 10
28 18 20 18 -8 1 -44 -15 -80 -35z"/>
<path d="M1090 1742 c36 -28 130 -121 130 -129 0 -2 9 -14 21 -26 24 -26 111
-176 134 -232 9 -20 19 -35 22 -31 3 3 -4 26 -16 51 -11 24 -21 49 -21 55 0 5
-4 10 -8 10 -5 0 -14 16 -22 35 -8 19 -17 35 -22 35 -4 0 -8 6 -8 13 0 7 -9
23 -20 35 -11 12 -20 24 -20 26 0 22 -166 186 -188 186 -12 0 -7 -8 18 -28z"/>
<path d="M589 1683 c-8 -16 -17 -30 -20 -33 -13 -10 -67 -125 -87 -185 -24
-73 -30 -96 -48 -205 -16 -101 -16 -100 -5 -100 4 0 11 31 15 69 14 143 77
324 147 428 31 44 34 53 21 53 -5 0 -15 -12 -23 -27z"/>
<path d="M860 1575 c1 -18 9 -78 40 -290 6 -38 15 -86 20 -105 8 -30 9 -27 5
20 -6 67 -23 180 -36 237 -5 23 -9 61 -9 85 0 24 -5 50 -10 58 -8 12 -10 12
-10 -5z"/>
<path d="M1560 1389 c-36 -28 -78 -61 -95 -75 -30 -25 -30 -25 20 2 28 15 52
30 55 34 3 3 26 21 53 40 42 30 60 52 40 49 -5 0 -37 -23 -73 -50z"/>
<path d="M1323 1241 c-106 -50 -208 -84 -348 -114 -16 -4 -15 -5 5 -6 71 -3
384 105 405 139 9 14 8 14 -62 -19z"/>
<path d="M1430 1213 c0 -5 6 -32 14 -59 20 -67 45 -217 48 -284 2 -30 6 -46 9
-35 7 27 -17 228 -36 295 -8 30 -17 60 -18 67 -4 16 -17 29 -17 16z"/>
<path d="M150 1194 c0 -11 239 -78 248 -69 2 2 -13 8 -35 14 -21 6 -63 18 -93
27 -80 23 -120 32 -120 28z"/>
<path d="M90 1152 c-13 -52 -25 -230 -14 -219 4 4 9 42 11 85 1 42 8 96 14
120 7 23 9 45 6 48 -3 3 -11 -12 -17 -34z"/>
<path d="M498 1107 c39 -12 364 -13 384 -2 11 7 -55 10 -198 10 -126 0 -203
-3 -186 -8z"/>
<path d="M421 1035 c-1 -87 14 -220 36 -300 21 -79 36 -95 18 -19 -21 86 -35
176 -44 289 -8 97 -8 98 -10 30z"/>
<path d="M935 1060 c3 -19 12 -79 20 -134 12 -87 25 -135 25 -94 0 34 -31 219
-40 240 -9 19 -10 17 -5 -12z"/>
<path d="M1730 952 c-67 -70 -131 -127 -140 -126 -7 2 -50 -33 -50 -40 0 -8
114 65 118 76 2 4 8 8 13 8 13 0 86 81 111 120 10 17 17 30 15 30 -1 0 -31
-31 -67 -68z"/>
<path d="M1828 910 c-12 -115 -43 -231 -88 -321 -22 -45 -39 -87 -37 -93 2 -6
21 25 41 69 20 44 41 87 46 96 18 34 51 218 48 270 l-3 54 -7 -75z"/>
<path d="M79 905 c-8 -30 11 -131 21 -114 5 7 6 18 2 24 -4 5 -9 33 -12 60 -3
30 -7 42 -11 30z"/>
<path d="M985 746 c3 -38 9 -74 15 -80 7 -7 9 -1 5 19 -4 17 -10 53 -15 80 -9
47 -9 46 -5 -19z"/>
<path d="M150 767 c0 -37 211 -138 284 -137 23 1 -48 30 -73 30 -20 0 -140 58
-178 87 -18 13 -33 22 -33 20z"/>
<path d="M1430 746 c-42 -23 -210 -75 -305 -95 -49 -11 -78 -20 -63 -20 35 -1
145 22 233 49 74 23 175 66 175 75 0 8 -13 5 -40 -9z"/>
<path d="M100 743 c0 -6 12 -45 26 -85 35 -99 111 -220 185 -296 66 -69 173
-152 195 -152 8 0 14 -4 14 -9 0 -19 194 -90 293 -106 27 -4 37 -3 32 4 -3 6
-16 11 -28 11 -89 0 -326 106 -414 185 -61 55 -103 97 -103 105 0 4 -4 10 -8
12 -31 13 -109 142 -158 263 -18 44 -33 75 -34 68z"/>
<path d="M1476 638 c-10 -56 -23 -113 -28 -127 -42 -106 -104 -205 -168 -270
-52 -52 -36 -54 17 -2 106 102 179 265 198 439 4 34 5 62 3 62 -3 0 -13 -46
-22 -102z"/>
<path d="M566 608 c49 -9 303 -8 369 0 28 4 -53 7 -179 7 -126 0 -211 -3 -190
-7z"/>
<path d="M500 593 c0 -19 31 -86 73 -156 71 -119 242 -277 300 -277 16 0 11 5
-16 19 -55 28 -143 98 -180 143 -17 22 -42 51 -54 66 -12 14 -43 66 -69 116
-52 100 -54 104 -54 89z"/>
<path d="M1010 548 c8 -40 17 -98 41 -258 6 -36 14 -83 19 -105 9 -38 9 -38 4
10 -2 28 -9 77 -14 110 -5 33 -17 111 -26 173 -9 61 -20 112 -24 112 -4 0 -4
-19 0 -42z"/>
<path d="M1657 452 c-84 -110 -206 -212 -321 -268 -32 -16 -54 -30 -48 -32 14
-4 104 42 177 91 89 61 225 202 225 234 0 18 -1 17 -33 -25z"/>
<path d="M908 143 c7 -3 16 -2 19 1 4 3 -2 6 -13 5 -11 0 -14 -3 -6 -6z"/>
<path d="M1130 109 c0 -5 5 -7 10 -4 6 3 10 8 10 11 0 2 -4 4 -10 4 -5 0 -10
-5 -10 -11z"/>
<path d="M1015 100 c-18 -8 -17 -9 8 -9 15 -1 27 4 27 9 0 12 -8 12 -35 0z"/>
</g>
</svg>
